PathFileType	4	(X/Y/Z)	/Users/itak/Documents/Research/Walk-IL/dataset/trc/00138_00007.trc
DataRate	CameraRate	NumFrames	NumMarkers	Units	OrigDataRate	OrigDataStartFrame	OrigNumFrames
100.000000	100.000000	4	53	mm	100.000000	492	563
Frame#	Time	RPSI			LPSI			L3			STRN			T10			C7			CLAV			RBAK			LBAK			LSHO			LUPA			LAEL			LAOL			LWTS			LWPS			LFRA			LIFD			LHPS			LHTS			RSHO			RUPA			RAEL			RAOL			RWTS			RWPS			RFRA			RIFD			RHTS			RHPS			RBHD			LFHD			RFHD			LBHD			LHIP			RHIP			RASI			LASI			LKNE			LTHI			LANK			LTIP			LTOE			LMT1			LMT5			LHEE			RKNE			RTHI			RANK			RTIP			RTOE			RMT1			RMT5			RHEE			
		X1	Y1	Z1	X2	Y2	Z2	X3	Y3	Z3	X4	Y4	Z4	X5	Y5	Z5	X6	Y6	Z6	X7	Y7	Z7	X8	Y8	Z8	X9	Y9	Z9	X10	Y10	Z10	X11	Y11	Z11	X12	Y12	Z12	X13	Y13	Z13	X14	Y14	Z14	X15	Y15	Z15	X16	Y16	Z16	X17	Y17	Z17	X18	Y18	Z18	X19	Y19	Z19	X20	Y20	Z20	X21	Y21	Z21	X22	Y22	Z22	X23	Y23	Z23	X24	Y24	Z24	X25	Y25	Z25	X26	Y26	Z26	X27	Y27	Z27	X28	Y28	Z28	X29	Y29	Z29	X30	Y30	Z30	X31	Y31	Z31	X32	Y32	Z32	X33	Y33	Z33	X34	Y34	Z34	X35	Y35	Z35	X36	Y36	Z36	X37	Y37	Z37	X38	Y38	Z38	X39	Y39	Z39	X40	Y40	Z40	X41	Y41	Z41	X42	Y42	Z42	X43	Y43	Z43	X44	Y44	Z44	X45	Y45	Z45	X46	Y46	Z46	X47	Y47	Z47	X48	Y48	Z48	X49	Y49	Z49	X50	Y50	Z50	X51	Y51	Z51	X52	Y52	Z52	X53	Y53	Z53	

493	4.92	1057.39013671875	1122.427978515625	4.163936138153076	921.7225341796875	1122.8134765625	9.70461368560791	987.7892456054688	1152.336181640625	13.94183540344238	979.099609375	1363.17041015625	-189.8858184814453	990.4844360351562	1299.297729492188	61.8953857421875	977.5537109375	1594.035766601562	45.82061004638672	976.5175170898438	1495.102416992188	-143.8234100341797	1065.70263671875	1405.313354492188	84.35517883300781	877.180419921875	1572.74755859375	56.40670776367188	803.2598266601562	1563.166259765625	-28.37069320678711	734.017822265625	1430.378051757812	-9.659403800964355	710.92626953125	1213.188598632812	-28.27452087402344	777.7067260742188	1196.570068359375	29.85603332519531	734.0081176757812	958.71826171875	-142.5512542724609	722.1275634765625	930.697509765625	-58.57107925415039	702.590576171875	1097.677856445312	-48.05006408691406	749.5823364257812	763.6100463867188	-166.2676391601562	718.4266967773438	855.4789428710938	-89.59074401855469	722.563720703125	869.0765380859375	-157.4984893798828	1155.972290039062	1577.673583984375	-19.22019386291504	1218.666748046875	1502.331298828125	-9.177177429199219	1233.046875	1207.326293945312	-23.25330543518066	1136.5146484375	1206.407592773438	-21.96741676330566	1233.317626953125	987.3056640625	-199.6332092285156	1253.038696289062	958.412841796875	-124.6075286865234	1249.00634765625	1136.7568359375	-54.47624969482422	1215.18994140625	802.8375244140625	-260.3296813964844	1240.787841796875	886.5037841796875	-245.6652221679688	1258.510009765625	865.1243896484375	-177.2428131103516	1061.814453125	1757.6494140625	14.54797077178955	893.0341186523438	1851.2802734375	-93.38462066650391	1019.790893554688	1864.988037109375	-120.9243392944336	933.8778076171875	1745.9365234375	52.30018997192383	808.3472290039062	1039.979370117188	-81.38983917236328	1165.81103515625	1028.3203125	-132.9762115478516	1111.545654296875	1103.885131835938	-209.7714538574219	845.9955444335938	1106.509155273438	-188.0169219970703	831.5780639648438	534.3482055664062	-146.9714660644531	809.3661499023438	681.72705078125	-112.4402160644531	838.261474609375	34.86468124389648	-10.64100742340088	808.3318481445312	289.8702392578125	-35.05159759521484	882.65625	36.28585815429688	-242.7095031738281	921.8098754882812	40.46928024291992	-164.0984039306641	806.50830078125	34.77400970458984	-135.0063629150391	901.9937133789062	35.20790481567383	56.14300537109375	1119.042236328125	536.13232421875	-112.2004928588867	1150.8701171875	814.1854248046875	-147.7608947753906	1081.755126953125	25.20475387573242	-12.80583095550537	1125.630981445312	403.2565002441406	-85.84874725341797	1008.503479003906	37.14720916748047	-241.4146575927734	974.9906616210938	33.18736267089844	-176.4344787597656	1095.603393554688	34.42580795288086	-148.3099212646484	1036.558227539062	28.9662036895752	47.62740707397461	
494	4.93	1056.630859375	1122.50830078125	3.596084594726562	920.9564819335938	1123.059936523438	8.796587944030762	987.043701171875	1152.439086914062	13.17201232910156	979.0090942382812	1363.302978515625	-190.5011138916016	989.8751220703125	1299.353881835938	61.1266975402832	977.27099609375	1594.137329101562	45.20972442626953	976.4688720703125	1495.228759765625	-144.4829559326172	1065.160766601562	1405.334106445312	83.87366485595703	876.8438720703125	1572.8837890625	55.6368522644043	803.0841064453125	1563.41748046875	-29.27311706542969	733.6088256835938	1430.738647460938	-10.70996475219727	710.14013671875	1213.603881835938	-29.50994300842285	776.78857421875	1196.777587890625	28.69244766235352	732.8824462890625	959.4304809570312	-144.4074096679688	720.8466186523438	931.1592407226562	-60.54141998291016	701.6156616210938	1098.16455078125	-49.54029846191406	748.1019287109375	764.3634033203125	-168.7445983886719	717.0834350585938	856.0521240234375	-91.79300689697266	721.2874145507812	869.86767578125	-159.6555480957031	1155.788208007812	1577.633056640625	-19.54339599609375	1218.371826171875	1502.253295898438	-9.276852607727051	1231.902954101562	1207.195922851562	-22.0685977935791	1135.140991210938	1206.383056640625	-22.05662536621094	1233.619995117188	986.0684814453125	-197.0245361328125	1251.947021484375	957.5076904296875	-121.4052658081055	1247.933227539062	1136.408325195312	-52.68267440795898	1215.607299804688	801.4207763671875	-256.8559875488281	1241.44140625	885.0055541992188	-242.3058776855469	1257.804077148438	863.844482421875	-173.3523101806641	1061.73974609375	1757.804077148438	14.02371311187744	892.918701171875	1851.326538085938	-93.90248107910156	1019.633544921875	1865.06201171875	-121.4567413330078	933.7871704101562	1746.076171875	51.84090805053711	807.6669311523438	1040.29443359375	-82.37281799316406	1165.214233398438	1028.220581054688	-133.3693389892578	1111.181762695312	1103.901733398438	-210.2853240966797	845.5814819335938	1106.78125	-189.0253753662109	831.2597045898438	534.5580444335938	-144.5526275634766	808.758544921875	682.023193359375	-111.2235260009766	838.2968139648438	34.84637069702148	-10.63888931274414	808.1748046875	289.984375	-33.55212783813477	882.64990234375	36.28741073608398	-242.7247314453125	921.8151245117188	40.46712112426758	-164.1168975830078	806.5015869140625	34.75027465820312	-135.0227355957031	901.9740600585938	35.07354354858398	56.06940078735352	1118.38671875	536.0764770507812	-113.1096725463867	1150.355712890625	814.1098022460938	-148.4737396240234	1081.675048828125	25.2625846862793	-12.78253650665283	1125.040161132812	403.2352600097656	-86.57072448730469	1008.541625976562	37.21411895751953	-241.4151153564453	974.989990234375	33.16933441162109	-176.4507598876953	1095.549682617188	34.43697738647461	-148.2999267578125	1036.428955078125	28.94084167480469	47.64962768554688	
495	4.94	1055.81201171875	1122.532836914062	3.060274600982666	920.1381225585938	1123.22412109375	7.926612854003906	986.2305908203125	1152.439208984375	12.45590782165527	978.8750610351562	1363.35986328125	-191.0814971923828	989.2294921875	1299.347534179688	60.25667190551758	976.9723510742188	1594.177490234375	44.60357284545898	976.408447265625	1495.287963867188	-145.1303100585938	1064.599853515625	1405.305541992188	83.43263244628906	876.4995727539062	1572.971801757812	54.8870735168457	802.8881225585938	1563.600341796875	-30.16050720214844	733.2017822265625	1430.992919921875	-11.71631813049316	709.3557739257812	1213.924194335938	-30.67317199707031	775.888671875	1196.887451171875	27.60148620605469	731.7725830078125	960.1204223632812	-146.2941589355469	719.5782470703125	931.5345458984375	-62.56412124633789	700.6427001953125	1098.562255859375	-50.98636245727539	746.5901489257812	765.1201782226562	-171.3952789306641	715.76025390625	856.5827026367188	-94.08786773681641	720.0146484375	870.65087890625	-161.8996124267578	1155.589111328125	1577.521850585938	-19.87991905212402	1218.062255859375	1502.10302734375	-9.364089965820312	1230.965942382812	1207.026489257812	-20.9376277923584	1133.981323242188	1206.257568359375	-21.97991180419922	1233.776733398438	984.8499145507812	-194.5147247314453	1251.02685546875	956.6286010742188	-118.4084625244141	1247.042602539062	1136.034545898438	-50.9915771484375	1215.675415039062	799.7962646484375	-253.3032836914062	1241.836547851562	883.5540161132812	-239.0801086425781	1257.142700195312	862.6047973632812	-169.6960601806641	1061.668334960938	1757.886840820312	13.49843406677246	892.7888793945312	1851.308715820312	-94.39492034912109	1019.457641601562	1865.08935546875	-121.9636154174805	933.693115234375	1746.13330078125	51.40060806274414	806.9429321289062	1040.503295898438	-83.37435150146484	1164.541137695312	1028.025756835938	-133.6805114746094	1110.789916992188	1103.884033203125	-210.7619171142578	845.14013671875	1106.9775390625	-190.0110473632812	830.9785766601562	534.725341796875	-142.2395477294922	808.1234130859375	682.25048828125	-110.0314102172852	838.3612060546875	34.83702087402344	-10.63015270233154	808.05224609375	290.0525512695312	-32.09969329833984	882.6517944335938	36.28458404541016	-242.7406005859375	921.8494262695312	40.44332504272461	-164.1336822509766	806.5330810546875	34.74677276611328	-135.0341949462891	901.9849853515625	34.91609954833984	55.99907302856445	1117.760498046875	536.011962890625	-114.0060958862305	1149.870483398438	814.076904296875	-149.1165161132812	1081.606567382812	25.31024169921875	-12.75622367858887	1124.48193359375	403.1808166503906	-87.28713226318359	1008.579223632812	37.27400588989258	-241.4118347167969	974.9906616210938	33.15143966674805	-176.4640502929688	1095.500610351562	34.44168472290039	-148.2897186279297	1036.314819335938	28.91345024108887	47.67448425292969	
496	4.95	1054.953735351562	1122.513671875	2.540420532226562	919.2930908203125	1123.322021484375	7.091699600219727	985.366943359375	1152.365356445312	11.77320194244385	978.6988525390625	1363.35107421875	-191.6348724365234	988.5531616210938	1299.289306640625	59.32988739013672	976.6564331054688	1594.157958984375	44.01212310791016	976.3322143554688	1495.288940429688	-145.7553100585938	1064.0166015625	1405.226440429688	83.03682708740234	876.144287109375	1573.018798828125	54.15530014038086	802.6697998046875	1563.726806640625	-31.02824211120605	732.7901000976562	1431.154541015625	-12.67977905273438	708.578369140625	1214.162475585938	-31.78105735778809	775.01025390625	1196.915283203125	26.56645202636719	730.6900634765625	960.78662109375	-148.2054901123047	718.3368530273438	931.8379516601562	-64.62450408935547	699.6781005859375	1098.881469726562	-52.39961242675781	745.0611572265625	765.8812255859375	-174.1852111816406	714.463134765625	857.0792236328125	-96.45318603515625	718.755615234375	871.4241333007812	-164.2090301513672	1155.37109375	1577.340209960938	-20.21944618225098	1217.732788085938	1501.878173828125	-9.430249214172363	1230.23681640625	1206.82177734375	-19.87396621704102	1133.052856445312	1206.04638671875	-21.71318626403809	1233.776489257812	983.6510009765625	-192.1244659423828	1250.292236328125	955.778076171875	-115.6326522827148	1246.337524414062	1135.639770507812	-49.41623687744141	1215.4189453125	797.9859008789062	-249.7005462646484	1241.95361328125	882.1212158203125	-236.0025177001953	1256.545288085938	861.4080810546875	-166.2935791015625	1061.596923828125	1757.900756835938	12.97384166717529	892.6476440429688	1851.235595703125	-94.86566162109375	1019.268676757812	1865.072631835938	-122.4475173950195	933.5958862304688	1746.1171875	50.97314834594727	806.1840209960938	1040.6162109375	-84.40859985351562	1163.801147460938	1027.745361328125	-133.930908203125	1110.368530273438	1103.838623046875	-211.2216491699219	844.6695556640625	1107.10986328125	-190.9715118408203	830.7066650390625	534.8624877929688	-140.0539398193359	807.4678344726562	682.4247436523438	-108.8729476928711	838.4244995117188	34.81703567504883	-10.61585235595703	807.9099731445312	290.076171875	-30.74205017089844	882.6589965820312	36.28150177001953	-242.7507629394531	921.8972778320312	40.41093444824219	-164.1436309814453	806.5806274414062	34.75223541259766	-135.0388793945312	901.9942626953125	34.7491455078125	55.94454193115234	1117.159057617188	535.94921875	-114.8804016113281	1149.385375976562	814.0670166015625	-149.7234344482422	1081.5478515625	25.35062789916992	-12.72827339172363	1123.95654296875	403.1018371582031	-87.99486541748047	1008.6162109375	37.32730102539062	-241.4062347412109	974.9915771484375	33.13191986083984	-176.4751129150391	1095.453979492188	34.44259262084961	-148.2795562744141	1036.216064453125	28.89264106750488	47.69787979125977	
